<svg width="39" height="36" viewBox="0 0 39 36" fill="none" xmlns="http://www.w3.org/2000/svg">
<path fill-rule="evenodd" clip-rule="evenodd" d="M12.1703 0.583416C12.3339 0.310351 12.5993 0.113453 12.908 0.0360388C13.2168 -0.0413758 13.5436 0.00703393 13.8167 0.170618C14.0898 0.334203 14.2867 0.599562 14.3641 0.90832C14.4415 1.21708 14.3931 1.54394 14.2295 1.81701L8.11915 12.0001H30.2806L24.1679 1.81701C24.0043 1.54394 23.9559 1.21708 24.0333 0.90832C24.1107 0.599562 24.3076 0.334203 24.5807 0.170618C24.8537 0.00703393 25.1806 -0.0413758 25.4893 0.0360388C25.7981 0.113453 26.0635 0.310351 26.227 0.583416L33.079 12.0001H37.1998C37.518 12.0001 37.8233 12.1266 38.0483 12.3516C38.2733 12.5767 38.3998 12.8819 38.3998 13.2001V18.0001C38.3998 18.3184 38.2733 18.6236 38.0483 18.8486C37.8233 19.0737 37.518 19.2001 37.1998 19.2001H35.9998V31.2C35.9998 32.4731 35.4941 33.694 34.5939 34.5941C33.6937 35.4943 32.4728 36 31.1998 36H7.19996C5.92692 36 4.70603 35.4943 3.80586 34.5941C2.9057 33.694 2.39999 32.4731 2.39999 31.2V19.2001H1.19999C0.881735 19.2001 0.576512 19.0737 0.35147 18.8486C0.126427 18.6236 0 18.3184 0 18.0001V13.2001C0 12.8819 0.126427 12.5767 0.35147 12.3516C0.576512 12.1266 0.881735 12.0001 1.19999 12.0001H5.32077L12.1679 0.583416H12.1703ZM8.39995 22.8001C8.39995 22.4818 8.27352 22.1766 8.04848 21.9516C7.82344 21.7265 7.51821 21.6001 7.19996 21.6001C6.8817 21.6001 6.57648 21.7265 6.35143 21.9516C6.12639 22.1766 5.99996 22.4818 5.99996 22.8001V30C5.99996 30.3183 6.12639 30.6235 6.35143 30.8486C6.57648 31.0736 6.8817 31.2 7.19996 31.2C7.51821 31.2 7.82344 31.0736 8.04848 30.8486C8.27352 30.6235 8.39995 30.3183 8.39995 30V22.8001ZM14.3999 22.8001C14.3999 22.4818 14.2735 22.1766 14.0484 21.9516C13.8234 21.7265 13.5182 21.6001 13.1999 21.6001C12.8817 21.6001 12.5764 21.7265 12.3514 21.9516C12.1264 22.1766 11.9999 22.4818 11.9999 22.8001V30C11.9999 30.3183 12.1264 30.6235 12.3514 30.8486C12.5764 31.0736 12.8817 31.2 13.1999 31.2C13.5182 31.2 13.8234 31.0736 14.0484 30.8486C14.2735 30.6235 14.3999 30.3183 14.3999 30V22.8001ZM20.3999 22.8001C20.3999 22.4818 20.2734 22.1766 20.0484 21.9516C19.8234 21.7265 19.5181 21.6001 19.1999 21.6001C18.8816 21.6001 18.5764 21.7265 18.3514 21.9516C18.1263 22.1766 17.9999 22.4818 17.9999 22.8001V30C17.9999 30.3183 18.1263 30.6235 18.3514 30.8486C18.5764 31.0736 18.8816 31.2 19.1999 31.2C19.5181 31.2 19.8234 31.0736 20.0484 30.8486C20.2734 30.6235 20.3999 30.3183 20.3999 30V22.8001ZM26.3998 22.8001C26.3998 22.4818 26.2734 22.1766 26.0484 21.9516C25.8233 21.7265 25.5181 21.6001 25.1998 21.6001C24.8816 21.6001 24.5764 21.7265 24.3513 21.9516C24.1263 22.1766 23.9999 22.4818 23.9999 22.8001V30C23.9999 30.3183 24.1263 30.6235 24.3513 30.8486C24.5764 31.0736 24.8816 31.2 25.1998 31.2C25.5181 31.2 25.8233 31.0736 26.0484 30.8486C26.2734 30.6235 26.3998 30.3183 26.3998 30V22.8001ZM32.3998 22.8001C32.3998 22.4818 32.2734 22.1766 32.0483 21.9516C31.8233 21.7265 31.5181 21.6001 31.1998 21.6001C30.8816 21.6001 30.5763 21.7265 30.3513 21.9516C30.1262 22.1766 29.9998 22.4818 29.9998 22.8001V30C29.9998 30.3183 30.1262 30.6235 30.3513 30.8486C30.5763 31.0736 30.8816 31.2 31.1998 31.2C31.5181 31.2 31.8233 31.0736 32.0483 30.8486C32.2734 30.6235 32.3998 30.3183 32.3998 30V22.8001Z" fill="white"/>
</svg>
